            <svg
              width="1920"
              height="1806"
              viewBox="0 0 1920 1806"
              fill="none"
              xmlns="http://www.w3.org/2000/svg"
            >
              <path
                d="M1872.23 1628.74C1939.27 1632.18 2308.14 1684.61 2355.5 1663L2182.88 152.265C2048.01 114.969 1965.67 307.294 1812.23 330.664C1672.4 351.961 1446.11 87.7819 1205.82 151.453C1108.07 177.355 1085.36 282.483 982.821 292.305C896.976 300.527 855.688 206.42 763.821 206.42C619.321 206.42 547.915 268.587 427.33 206.42C316.917 149.498 194.913 128.048 133.137 151.453C71.36 174.859 -38.0057 150.265 -106.499 228.377C-161.293 290.867 -136.005 395.176 -148.155 378.1L-146.669 1649.81C-56.5336 1644.95 123.152 1539.56 237.161 1526.43C351.169 1513.3 494.324 1579.5 542.172 1599.04C590.02 1618.58 641.135 1611.72 686.002 1614.02C746.418 1617.11 821.848 1680.05 899.822 1667.8C972.709 1656.36 1013.56 1557.1 1083.82 1558.8C1154.08 1560.51 1154.22 1590.59 1232.28 1630.67C1310.33 1670.74 1341.54 1639.91 1399.4 1648.74C1455.62 1657.32 1515.64 1721.7 1598.78 1723.52C1687.08 1725.45 1788.43 1624.44 1872.23 1628.74Z"
                fill="#C5C1DD"
              />
              <path
                d="M1872.23 1628.74C1939.27 1632.18 2308.14 1684.61 2355.5 1663L2182.88 152.265C2048.01 114.969 1965.67 307.294 1812.23 330.664C1672.4 351.961 1446.11 87.7819 1205.82 151.453C1108.07 177.355 1085.36 282.483 982.821 292.305C896.976 300.527 855.688 206.42 763.821 206.42C619.321 206.42 547.915 268.587 427.33 206.42C316.917 149.498 194.913 128.048 133.137 151.453C71.36 174.859 -38.0057 150.265 -106.499 228.377C-161.293 290.867 -136.005 395.176 -148.155 378.1L-146.669 1649.81C-56.5336 1644.95 123.152 1539.56 237.161 1526.43C351.169 1513.3 494.324 1579.5 542.172 1599.04C590.02 1618.58 641.135 1611.72 686.002 1614.02C746.418 1617.11 821.848 1680.05 899.822 1667.8C972.709 1656.36 1013.56 1557.1 1083.82 1558.8C1154.08 1560.51 1154.22 1590.59 1232.28 1630.67C1310.33 1670.74 1341.54 1639.91 1399.4 1648.74C1455.62 1657.32 1515.64 1721.7 1598.78 1723.52C1687.08 1725.45 1788.43 1624.44 1872.23 1628.74Z"
                fill="url(#paint0_linear_2181_652)"
              />
              <path
                d="M1872.23 1628.74C1939.27 1632.18 2308.14 1684.61 2355.5 1663L2182.88 152.265C2048.01 114.969 1965.67 307.294 1812.23 330.664C1672.4 351.961 1446.11 87.7819 1205.82 151.453C1108.07 177.355 1085.36 282.483 982.821 292.305C896.976 300.527 855.688 206.42 763.821 206.42C619.321 206.42 547.915 268.587 427.33 206.42C316.917 149.498 194.913 128.048 133.137 151.453C71.36 174.859 -38.0057 150.265 -106.499 228.377C-161.293 290.867 -136.005 395.176 -148.155 378.1L-146.669 1649.81C-56.5336 1644.95 123.152 1539.56 237.161 1526.43C351.169 1513.3 494.324 1579.5 542.172 1599.04C590.02 1618.58 641.135 1611.72 686.002 1614.02C746.418 1617.11 821.848 1680.05 899.822 1667.8C972.709 1656.36 1013.56 1557.1 1083.82 1558.8C1154.08 1560.51 1154.22 1590.59 1232.28 1630.67C1310.33 1670.74 1341.54 1639.91 1399.4 1648.74C1455.62 1657.32 1515.64 1721.7 1598.78 1723.52C1687.08 1725.45 1788.43 1624.44 1872.23 1628.74Z"
                fill="url(#paint1_linear_2181_652)"
              />
              <path
                d="M2014.13 237.276C2071.46 250.687 2112.62 248.574 2168.27 229.364L2204.52 1572.55C2155.68 1563.57 2037.95 1565.87 1957.68 1646.9C1857.35 1748.19 1754.54 1803.89 1662.25 1805C1458.84 1807.45 1424.29 1651.33 1253.25 1624.5C1141.95 1607.04 1094.6 1606.02 995.751 1624.5C843.385 1652.99 777.444 1805 642.251 1805C523.251 1805 432.751 1711 313.751 1711C171.466 1711 126.576 1563.28 35.5814 1563.46C-48.5674 1539.97 -162.754 1534.56 -177.123 1494.41L-130.084 87.0489C-89.1917 123.041 14.546 200.922 104.492 202.359C226.337 204.305 306.66 49.4627 432.742 24.5564C558.825 -0.349893 678.326 127.262 793.36 135.093C885.388 141.357 931.685 229.313 1025.92 211.148C1096.7 197.506 1131.84 121.122 1180.43 113.185C1252.1 101.48 1267.45 119.602 1369.44 87.1562C1464.88 56.7917 1500.25 2.78148 1632.63 1.08636C1836.03 -1.51807 1865.35 202.466 2014.13 237.276Z"
                fill="url(#paint2_linear_2181_652)"
              />
              <path
                d="M2014.13 237.276C2071.46 250.687 2112.62 248.574 2168.27 229.364L2204.52 1572.55C2155.68 1563.57 2037.95 1565.87 1957.68 1646.9C1857.35 1748.19 1754.54 1803.89 1662.25 1805C1458.84 1807.45 1424.29 1651.33 1253.25 1624.5C1141.95 1607.04 1094.6 1606.02 995.751 1624.5C843.385 1652.99 777.444 1805 642.251 1805C523.251 1805 432.751 1711 313.751 1711C171.466 1711 126.576 1563.28 35.5814 1563.46C-48.5674 1539.97 -162.754 1534.56 -177.123 1494.41L-130.084 87.0489C-89.1917 123.041 14.546 200.922 104.492 202.359C226.337 204.305 306.66 49.4627 432.742 24.5564C558.825 -0.349893 678.326 127.262 793.36 135.093C885.388 141.357 931.685 229.313 1025.92 211.148C1096.7 197.506 1131.84 121.122 1180.43 113.185C1252.1 101.48 1267.45 119.602 1369.44 87.1562C1464.88 56.7917 1500.25 2.78148 1632.63 1.08636C1836.03 -1.51807 1865.35 202.466 2014.13 237.276Z"
                fill="url(#paint3_linear_2181_652)"
              />
              <defs>
                <linearGradient
                  id="paint0_linear_2181_652"
                  x1="113.001"
                  y1="84.0008"
                  x2="187.11"
                  y2="348.153"
                  gradientUnits="userSpaceOnUse"
                >
                  <stop stop-color="#D15834" />
                  <stop offset="0.114523" stop-color="#D05F3F" />
                  <stop offset="0.442274" stop-color="#C5BAD2" />
                  <stop offset="1" stop-color="#C5BAD2" stop-opacity="0" />
                </linearGradient>
                <linearGradient
                  id="paint1_linear_2181_652"
                  x1="-38.4993"
                  y1="1611"
                  x2="164.066"
                  y2="1436.29"
                  gradientUnits="userSpaceOnUse"
                >
                  <stop stop-color="#D15834" />
                  <stop offset="0.77244" stop-color="#C5BAD2" />
                  <stop offset="1" stop-color="#C5BAD2" stop-opacity="0" />
                </linearGradient>
                <linearGradient
                  id="paint2_linear_2181_652"
                  x1="1094"
                  y1="344"
                  x2="1028.5"
                  y2="1978"
                  gradientUnits="userSpaceOnUse"
                >
                  <stop offset="0.666875" stop-color="#D9D9D9" stop-opacity="0" />
                  <stop offset="1" stop-color="#C5C0DA" />
                </linearGradient>
                <linearGradient
                  id="paint3_linear_2181_652"
                  x1="815.5"
                  y1="-188.5"
                  x2="1050.25"
                  y2="1205"
                  gradientUnits="userSpaceOnUse"
                >
                  <stop stop-color="#C5C0DA" />
                  <stop offset="0.508758" stop-color="#D9D9D9" stop-opacity="0" />
                </linearGradient>
              </defs>
            </svg>